<?xml version="1.0" encoding="UTF-8"?><svg id="_レイヤー_1" xmlns="http://www.w3.org/2000/svg" viewBox="0 0 692 230"><defs><style>.cls-1{fill:none;}.cls-2{fill-rule:evenodd;}.cls-2,.cls-3{fill:#222;}</style></defs><path class="cls-3" d="M595.87,177.64c-8.9,0-16.61-1.96-23.13-5.87-6.53-3.91-11.59-9.39-15.19-16.43-3.56-7.04-5.34-15.26-5.34-24.68s1.78-17.66,5.34-24.74c3.6-7.08,8.66-12.58,15.19-16.49,6.53-3.91,14.24-5.87,23.13-5.87s16.61,1.96,23.13,5.87c6.53,3.91,11.57,9.41,15.13,16.49,3.6,7.08,5.4,15.32,5.4,24.74s-1.8,17.64-5.4,24.68c-3.56,7.04-8.6,12.52-15.13,16.43-6.52,3.92-14.24,5.87-23.13,5.87ZM595.99,160.44c4.82,0,8.86-1.32,12.1-3.97,3.24-2.69,5.66-6.29,7.24-10.8,1.62-4.51,2.43-9.53,2.43-15.07s-.81-10.62-2.43-15.13c-1.58-4.55-3.99-8.17-7.24-10.86-3.24-2.69-7.28-4.03-12.1-4.03s-9.06,1.34-12.34,4.03c-3.24,2.69-5.67,6.31-7.3,10.86-1.58,4.51-2.37,9.55-2.37,15.13s.79,10.56,2.37,15.07c1.62,4.51,4.05,8.11,7.3,10.8,3.28,2.65,7.4,3.97,12.34,3.97Z"/><path class="cls-3" d="M520.92,175.86v-91.11h21.47v91.11h-21.47Z"/><path class="cls-3" d="M457.87,177.46c-7.16,0-13.56-1.84-19.22-5.52-5.66-3.68-10.12-9.02-13.41-16.02-3.28-7-4.92-15.5-4.92-25.51s1.66-18.66,4.98-25.63c3.36-7,7.89-12.28,13.58-15.84,5.69-3.6,12.04-5.4,19.04-5.4,5.34,0,9.73.91,13.17,2.73,3.44,1.78,6.17,3.93,8.19,6.47,2.02,2.49,3.58,4.84,4.69,7.06h.89v-45.41h21.53v121.45h-21.12v-14.36h-1.31c-1.11,2.21-2.71,4.57-4.8,7.06-2.1,2.45-4.86,4.55-8.3,6.29-3.44,1.74-7.77,2.61-12.99,2.61ZM463.86,159.85c4.55,0,8.42-1.23,11.63-3.68,3.2-2.49,5.63-5.95,7.3-10.38,1.66-4.43,2.49-9.59,2.49-15.48s-.83-11.01-2.49-15.36c-1.62-4.35-4.03-7.73-7.24-10.14-3.16-2.41-7.06-3.62-11.69-3.62s-8.78,1.25-11.98,3.74c-3.2,2.49-5.62,5.93-7.24,10.32-1.62,4.39-2.43,9.41-2.43,15.07s.81,10.78,2.43,15.24c1.66,4.43,4.09,7.93,7.3,10.5,3.24,2.53,7.22,3.8,11.92,3.8Z"/><path class="cls-3" d="M388.86,137.54v-52.79h21.47v91.11h-20.82v-16.19h-.95c-2.06,5.1-5.44,9.27-10.14,12.52-4.67,3.24-10.42,4.86-17.26,4.86-5.97,0-11.25-1.33-15.84-3.97-4.55-2.69-8.11-6.58-10.68-11.69-2.57-5.14-3.86-11.35-3.86-18.63v-58.01h21.47v54.69c0,5.77,1.58,10.36,4.75,13.76,3.16,3.4,7.32,5.1,12.46,5.1,3.16,0,6.23-.77,9.19-2.31,2.97-1.54,5.4-3.84,7.3-6.88,1.94-3.08,2.91-6.94,2.91-11.57Z"/><path class="cls-3" d="M321.18,84.75v16.61l-52.5-.08v-16.61l52.5.08ZM281.73,62.92h21.47v85.54c0,2.89.43,5.1,1.3,6.64.91,1.5,2.1,2.53,3.56,3.08,1.46.55,3.09.83,4.86.83,1.34,0,2.57-.1,3.68-.3,1.15-.2,2.02-.38,2.61-.53l3.62,16.79c-1.15.4-2.79.83-4.92,1.3-2.1.47-4.67.75-7.71.83-5.38.16-10.22-.65-14.53-2.43-4.31-1.82-7.73-4.63-10.26-8.42-2.49-3.8-3.72-8.54-3.68-14.24V62.92Z"/><path class="cls-2" d="M247.13,84.67c-1.03-3.71-3.17-6.71-6.42-8.99-4.07-2.89-9.37-4.33-15.9-4.33-4.59,0-8.52.69-11.8,2.08-3.28,1.38-5.79,3.26-7.53,5.64-1.74,2.37-2.63,5.08-2.67,8.13,0,2.53.57,4.73,1.72,6.58,1.19,1.86,2.79,3.44,4.8,4.75,2.02,1.27,4.25,2.33,6.7,3.2,2.45.87,4.92,1.6,7.42,2.19l11.39,2.85c4.59,1.07,9,2.51,13.23,4.33,4.27,1.82,8.09,4.11,11.45,6.88,3.4,2.77,6.09,6.11,8.07,10.03,1.98,3.92,2.97,8.5,2.97,13.76,0,7.12-1.82,13.39-5.46,18.8-3.64,5.38-8.9,9.59-15.78,12.63-6.84,3-15.13,4.51-24.85,4.51s-17.66-1.46-24.62-4.39c-6.92-2.93-12.34-7.2-16.25-12.81-3.88-5.62-5.97-12.46-6.29-20.52h21.65c.32,4.23,1.62,7.75,3.92,10.56,2.29,2.81,5.28,4.9,8.96,6.29,3.72,1.38,7.87,2.08,12.46,2.08s8.98-.71,12.57-2.14c3.64-1.46,6.49-3.48,8.54-6.05,2.06-2.61,3.1-5.65,3.14-9.13-.04-3.16-.97-5.77-2.79-7.83-1.82-2.1-4.37-3.84-7.65-5.22-3.24-1.42-7.04-2.69-11.39-3.8l-13.82-3.56c-10-2.57-17.91-6.47-23.73-11.69-5.77-5.26-8.66-12.24-8.66-20.94,0-7.16,1.94-13.43,5.81-18.8,3.92-5.38,9.23-9.55,15.96-12.52,6.72-3.01,14.33-4.51,22.84-4.51s16.17,1.5,22.66,4.51c6.52,2.97,11.65,7.1,15.36,12.4,3.14,4.45,5,9.46,5.57,15.04h-21.58Z"/><path class="cls-3" d="M531.66,76.07c-3.22,0-5.98-1.14-8.28-3.41-2.3-2.27-3.43-5.05-3.4-8.31-.03-3.2,1.1-5.93,3.4-8.21,2.3-2.27,5.06-3.41,8.28-3.41s5.82,1.14,8.12,3.41c2.34,2.27,3.52,5.01,3.56,8.21-.04,2.17-.6,4.14-1.7,5.92-1.06,1.78-2.48,3.2-4.24,4.26-1.73,1.03-3.64,1.55-5.73,1.55Z"/><path class="cls-2" d="M177.3,67.98l-109.14,109.14-15.68-15.68,109.14-109.14,15.68,15.68Z"/><rect class="cls-1" width="692" height="230"/></svg>